# xmcd
# 
# Track frame offsets:
#     150
#     12155
#     29815
#     49845
#     58182
#     66060
#     82777
#     97477
#     103040
#     122162
#     135547
#     142430
#     163277
#     176168
#     186715
#     202592
#     215567
#     235602
# 
# Disc length: 3401
# 
# Revision: 6
# Processed by: cddbd v1.5.2PL0 Copyright (c) Steve Scherf et al.
# Submitted via: fre:ac v1.0.31
# 
DISCID=170d4712
DTITLE=張學友 - 雪浪湖  (K2HD 2011 JP) [CD2]
DYEAR=1997
DGENRE=Pop
TTITLE0=四獄卒之歌
TTITLE1=葬月
TTITLE2=怎麼捨得你
TTITLE3=怒
TTITLE4=老狼在此
TTITLE5=種子
TTITLE6=等了又等
TTITLE7=等到了
TTITLE8=簡簡單單愛情觀
TTITLE9=信念得救
TTITLE10=愛狼説[悼念篇]
TTITLE11=冷靜
TTITLE12=原來只要為你活一天
TTITLE13=原來只要共你活一天
TTITLE14=內疚
TTITLE15=困
TTITLE16=抱雪
TTITLE17=愛是永恆
EXTD=ID3G:  17
EXTT0=
EXTT1=
EXTT2=
EXTT3=
EXTT4=
EXTT5=
EXTT6=
EXTT7=
EXTT8=
EXTT9=
EXTT10=
EXTT11=
EXTT12=
EXTT13=
EXTT14=
EXTT15=
EXTT16=
EXTT17=
PLAYORDER=
